<svg xmlns="http://www.w3.org/2000/svg" width="89.482" height="96.289" viewBox="0 0 89.482 96.289">
  <path id="iconfinder_calendar-check-o_1608596" d="M69.286,51.26,42.061,78.486a1.8,1.8,0,0,1-2.446,0L24.3,63.171a1.775,1.775,0,0,1-.479-1.223,1.591,1.591,0,0,1,.479-1.17l2.446-2.446a1.591,1.591,0,0,1,1.17-.479,1.775,1.775,0,0,1,1.223.479l11.7,11.7L64.448,46.421a1.775,1.775,0,0,1,1.223-.479,1.591,1.591,0,0,1,1.17.479l2.446,2.446a1.591,1.591,0,0,1,.479,1.17A1.775,1.775,0,0,1,69.286,51.26ZM6.806,88.482h74.87V34.032H6.806Zm20.419-64.66V8.508a1.638,1.638,0,0,0-1.7-1.7h-3.4a1.638,1.638,0,0,0-1.7,1.7V23.822a1.638,1.638,0,0,0,1.7,1.7h3.4a1.638,1.638,0,0,0,1.7-1.7Zm40.838,0V8.508a1.638,1.638,0,0,0-1.7-1.7h-3.4a1.638,1.638,0,0,0-1.7,1.7V23.822a1.638,1.638,0,0,0,1.7,1.7h3.4a1.638,1.638,0,0,0,1.7-1.7Zm20.419-3.4V88.482a6.9,6.9,0,0,1-6.806,6.806H6.806a6.541,6.541,0,0,1-4.786-2.021A6.541,6.541,0,0,1,0,88.482V20.419a6.541,6.541,0,0,1,2.021-4.786,6.541,6.541,0,0,1,4.786-2.021h6.806v-5.1a8.193,8.193,0,0,1,2.5-6.009A8.193,8.193,0,0,1,22.121,0h3.4a8.193,8.193,0,0,1,6.009,2.5,8.193,8.193,0,0,1,2.5,6.009v5.1H54.451v-5.1A8.193,8.193,0,0,1,56.95,2.5,8.193,8.193,0,0,1,62.959,0h3.4a8.193,8.193,0,0,1,6.009,2.5,8.193,8.193,0,0,1,2.5,6.009v5.1h6.806a6.541,6.541,0,0,1,4.786,2.021A6.541,6.541,0,0,1,88.482,20.419Z" transform="translate(0.5 0.5)" fill="#1c1b1b" stroke="#1c1b1b" stroke-width="1" opacity="0.79"/>
</svg>
